<?xml version="1.0" encoding="UTF-8" standalone="no"?>
<!-- Created with Inkscape (http://www.inkscape.org/) -->

<svg
   xmlns:dc="http://purl.org/dc/elements/1.1/"
   xmlns:cc="http://creativecommons.org/ns#"
   xmlns:rdf="http://www.w3.org/1999/02/22-rdf-syntax-ns#"
   xmlns:svg="http://www.w3.org/2000/svg"
   xmlns="http://www.w3.org/2000/svg"
   xmlns:xlink="http://www.w3.org/1999/xlink"
   xmlns:sodipodi="http://sodipodi.sourceforge.net/DTD/sodipodi-0.dtd"
   xmlns:inkscape="http://www.inkscape.org/namespaces/inkscape"
   width="128"
   height="128"
   id="svg2"
   version="1.1"
   inkscape:version="0.48.1 r9760"
   sodipodi:docname="bluetooth.svg">
  <defs
     id="defs4">
    <linearGradient
       inkscape:collect="always"
       id="linearGradient3751">
      <stop
         style="stop-color:#cccccc;stop-opacity:1;"
         offset="0"
         id="stop3753" />
      <stop
         style="stop-color:#cccccc;stop-opacity:0;"
         offset="1"
         id="stop3755" />
    </linearGradient>
    <linearGradient
       inkscape:collect="always"
       xlink:href="#linearGradient3751"
       id="linearGradient3757"
       x1="64.256676"
       y1="122.84138"
       x2="63.490788"
       y2="-90.805878"
       gradientUnits="userSpaceOnUse" />
  </defs>
  <sodipodi:namedview
     id="base"
     pagecolor="#ffffff"
     bordercolor="#666666"
     borderopacity="1.0"
     inkscape:pageopacity="0.0"
     inkscape:pageshadow="2"
     inkscape:zoom="3.959798"
     inkscape:cx="25.69596"
     inkscape:cy="66.461889"
     inkscape:document-units="px"
     inkscape:current-layer="layer1"
     showgrid="false"
     inkscape:window-width="1680"
     inkscape:window-height="998"
     inkscape:window-x="0"
     inkscape:window-y="26"
     inkscape:window-maximized="1" />
  <metadata
     id="metadata7">
    <rdf:RDF>
      <cc:Work
         rdf:about="">
        <dc:format>image/svg+xml</dc:format>
        <dc:type
           rdf:resource="http://purl.org/dc/dcmitype/StillImage" />
        <dc:title />
      </cc:Work>
    </rdf:RDF>
  </metadata>
  <g
     inkscape:label="Layer 1"
     inkscape:groupmode="layer"
     id="layer1"
     transform="translate(0,-924.36218)">
    <path
       style="fill:url(#linearGradient3757);fill-opacity:1;stroke:none"
       d="M 64 5.0625 C 20.036253 5.0625 20.0625 31.450079 20.0625 64 C 20.0625 96.549926 20.036258 122.9375 64 122.9375 C 107.96373 122.9375 107.9375 96.549926 107.9375 64 C 107.9375 31.450079 107.71121 5.0625 64 5.0625 z M 61.09375 10 L 65.25 13.34375 L 94.84375 37.03125 L 99 40.34375 L 94.84375 43.65625 L 69.46875 64 L 94.84375 84.34375 L 99 87.65625 L 94.84375 90.96875 L 65.25 114.6875 L 61.09375 118 L 61.09375 111.34375 L 61.09375 70.6875 L 61.09375 70.40625 L 33.6875 92.46875 L 29.59375 87.375 L 58.6875 64 L 29 40.15625 L 33.09375 35.03125 L 61.09375 57.59375 L 61.09375 57.3125 L 61.09375 16.65625 L 61.09375 10 z M 66.65625 23.3125 L 66.65625 57.375 L 87.9375 40.34375 L 66.65625 23.3125 z M 66.65625 70.625 L 66.65625 104.71875 L 87.9375 87.65625 L 66.65625 70.625 z "
       transform="translate(0,924.36218)"
       id="path3756" />
  </g>
</svg>
