<?xml version="1.0" encoding="UTF-8" standalone="no"?>
<!-- Created with Inkscape (http://www.inkscape.org/) -->

<svg
   xmlns:dc="http://purl.org/dc/elements/1.1/"
   xmlns:cc="http://creativecommons.org/ns#"
   xmlns:rdf="http://www.w3.org/1999/02/22-rdf-syntax-ns#"
   xmlns:svg="http://www.w3.org/2000/svg"
   xmlns="http://www.w3.org/2000/svg"
   xmlns:xlink="http://www.w3.org/1999/xlink"
   xmlns:sodipodi="http://sodipodi.sourceforge.net/DTD/sodipodi-0.dtd"
   xmlns:inkscape="http://www.inkscape.org/namespaces/inkscape"
   width="128"
   height="128"
   id="svg2985"
   version="1.1"
   inkscape:version="0.48.1 r9760"
   sodipodi:docname="wlan.svg">
  <defs
     id="defs2987">
    <linearGradient
       inkscape:collect="always"
       id="linearGradient3785">
      <stop
         style="stop-color:#cccccc;stop-opacity:1;"
         offset="0"
         id="stop3787" />
      <stop
         style="stop-color:#cccccc;stop-opacity:0;"
         offset="1"
         id="stop3789" />
    </linearGradient>
    <linearGradient
       inkscape:collect="always"
       xlink:href="#linearGradient3785"
       id="linearGradient3791"
       x1="63.747158"
       y1="123.96039"
       x2="64.252838"
       y2="-51.932423"
       gradientUnits="userSpaceOnUse" />
  </defs>
  <sodipodi:namedview
     id="base"
     pagecolor="#ffffff"
     bordercolor="#666666"
     borderopacity="1.0"
     inkscape:pageopacity="0.0"
     inkscape:pageshadow="2"
     inkscape:zoom="5.6568542"
     inkscape:cx="77.257941"
     inkscape:cy="65.39291"
     inkscape:current-layer="layer1"
     showgrid="true"
     inkscape:grid-bbox="true"
     inkscape:document-units="px"
     inkscape:window-width="1680"
     inkscape:window-height="998"
     inkscape:window-x="0"
     inkscape:window-y="26"
     inkscape:window-maximized="1" />
  <metadata
     id="metadata2990">
    <rdf:RDF>
      <cc:Work
         rdf:about="">
        <dc:format>image/svg+xml</dc:format>
        <dc:type
           rdf:resource="http://purl.org/dc/dcmitype/StillImage" />
        <dc:title></dc:title>
      </cc:Work>
    </rdf:RDF>
  </metadata>
  <g
     id="layer1"
     inkscape:label="Layer 1"
     inkscape:groupmode="layer"
     transform="translate(0,80)">
    <path
       style="fill:url(#linearGradient3791);fill-opacity:1;fill-rule:evenodd;stroke:none;"
       d="M 22.75 6.1875 C 13.622957 16.148259 8.0625 29.427373 8.0625 44 C 8.0625 58.572627 13.622957 71.859086 22.75 81.8125 L 27.1875 77.75 C 19.030615 68.85554 14.0625 56.98987 14.0625 43.96875 C 14.0625 30.970949 19.025343 19.13179 27.15625 10.25 L 22.75 6.1875 z M 105.25 6.1875 L 100.84375 10.25 C 108.97466 19.13179 113.9375 30.970949 113.9375 43.96875 C 113.9375 56.98987 108.96939 68.85554 100.8125 77.75 L 105.25 81.8125 C 114.37704 71.859086 119.9375 58.572627 119.9375 44 C 119.9375 29.427373 114.37704 16.148259 105.25 6.1875 z M 37.53125 19.71875 C 31.659982 26.115695 28.0625 34.63369 28.0625 44 C 28.0625 53.36631 31.659982 61.884305 37.53125 68.28125 L 41.9375 64.21875 C 37.052609 58.891337 34.0625 51.798718 34.0625 44 C 34.0625 36.201282 37.052609 29.108663 41.9375 23.78125 L 37.53125 19.71875 z M 90.46875 19.71875 L 86.0625 23.78125 C 90.947391 29.108663 93.9375 36.201282 93.9375 44 C 93.9375 51.798718 90.947391 58.891337 86.0625 64.21875 L 90.46875 68.28125 C 96.340018 61.884305 99.9375 53.36631 99.9375 44 C 99.9375 34.63369 96.340018 26.115695 90.46875 19.71875 z M 64 34 C 58.477152 34 54 38.477152 54 44 C 54 49.522848 58.477152 54 64 54 C 69.522848 54 74 49.522848 74 44 C 74 38.477152 69.522848 34 64 34 z M 64.03125 60 L 48 123.9375 L 80 124 L 64.03125 60 z "
       transform="translate(0,-80)"
       id="path3765" />
    <path
       style="fill:#008000;fill-opacity:1;stroke:none"
       d="M 80,23.746299 100.7019,34.604651 127.99999,0 104.05073,48 z"
       id="path2993"
       inkscape:connector-curvature="0"
       sodipodi:nodetypes="ccccc" />
  </g>
</svg>
